<svg xmlns="http://www.w3.org/2000/svg" version="1.1" xmlns:xlink="http://www.w3.org/1999/xlink" viewBox="0 0 200 200" width="200" height="200"><metadata><rdf:RDF xmlns:rdf="http://www.w3.org/1999/02/22-rdf-syntax-ns#" xmlns:dc="http://purl.org/dc/elements/1.1/"><rdf:Description><dc:creator>RealFaviconGenerator</dc:creator><dc:source>https://realfavicongenerator.net</dc:source></rdf:Description></rdf:RDF></metadata><rect width="200" height="200" fill="url('#gradient')"></rect><defs><linearGradient id="gradient" gradientTransform="rotate(45 0.5 0.5)"><stop offset="0%" stop-color="#edf1f7"></stop><stop offset="100%" stop-color="#edf1f7"></stop></linearGradient></defs><g><g fill="#18181b" transform="matrix(2.3751186083289406,0,0,2.3751186083289406,34.06791973579979,116.88646848881692)" stroke="#edf1f7" stroke-width="0.2"><path d="M9.98 0L9.15-2.66L4.45-2.66L3.63 0L-0.03 0L5.19-14.22L8.41-14.22L13.66 0L9.98 0ZM6.80-10.23L5.27-5.30L8.33-5.30L6.80-10.23ZM26.57-14.22L26.57 0L23.16 0L18.13-8.85L18.13 0L14.70 0L14.70-14.22L18.13-14.22L23.15-5.37L23.15-14.22L26.57-14.22ZM40.62-14.22L40.62 0L37.21 0L32.17-8.85L32.17 0L28.74 0L28.74-14.22L32.17-14.22L37.20-5.37L37.20-14.22L40.62-14.22ZM51.87 0L51.04-2.66L46.34-2.66L45.52 0L41.86 0L47.07-14.22L50.29-14.22L55.55 0L51.87 0ZM48.68-10.23L47.16-5.30L50.21-5.30L48.68-10.23Z"></path></g></g></svg>